/* XPM */
static char * openstego_xpm[] = {
"32 32 147 2",
"  	c None",
". 	c #081085",
"+ 	c #101789",
"@ 	c #0D1588",
"# 	c #091086",
"$ 	c #252B95",
"% 	c #EAE6FF",
"& 	c #BDBCE7",
"* 	c #070F85",
"= 	c #282B91",
"- 	c #E7BCC2",
"; 	c #E5A9A3",
"> 	c #E4998C",
", 	c #E28974",
"' 	c #E7BCC0",
") 	c #373C9E",
"! 	c #5E61B3",
"~ 	c #070E84",
"{ 	c #D13806",
"] 	c #D43B07",
"^ 	c #DD3C00",
"/ 	c #9E5D71",
"( 	c #7476C0",
"_ 	c #D7D4F5",
": 	c #E9E5FE",
"< 	c #3F44A3",
"[ 	c #060D84",
"} 	c #DC3C00",
"| 	c #5A1C4C",
"1 	c #000881",
"2 	c #C5C2EB",
"3 	c #E2DFFB",
"4 	c #272D96",
"5 	c #E4A097",
"6 	c #D8D5F5",
"7 	c #181E8D",
"8 	c #CFCCF0",
"9 	c #0E1588",
"0 	c #0A1186",
"a 	c #050D83",
"b 	c #DE4913",
"c 	c #DE4F1D",
"d 	c #DF5323",
"e 	c #E5ABA7",
"f 	c #10188A",
"g 	c #DA3B01",
"h 	c #91343D",
"i 	c #E7C1C8",
"j 	c #9192D0",
"k 	c #232A94",
"l 	c #8687CA",
"m 	c #740808",
"n 	c #700000",
"o 	c #810900",
"p 	c #D83A00",
"q 	c #8A3237",
"r 	c #CEA8A8",
"s 	c #E4CFCF",
"t 	c #E1A492",
"u 	c #DC3D01",
"v 	c #E3C6C2",
"w 	c #C69B9B",
"x 	c #710405",
"y 	c #F2B69F",
"z 	c #E8784F",
"A 	c #E46131",
"B 	c #E56B3E",
"C 	c #E87950",
"D 	c #F6CEBF",
"E 	c #FFFFFF",
"F 	c #DBBFBF",
"G 	c #6F0204",
"H 	c #F0A78C",
"I 	c #DE3F04",
"J 	c #DF4810",
"K 	c #F4C2AF",
"L 	c #730607",
"M 	c #F7D2C4",
"N 	c #E1511B",
"O 	c #E46232",
"P 	c #E6D9C9",
"Q 	c #4C9A4F",
"R 	c #F3F8F3",
"S 	c #FCEFEA",
"T 	c #E67246",
"U 	c #EB8C68",
"V 	c #FDF9F7",
"W 	c #4E9C51",
"X 	c #0B760F",
"Y 	c #58A15B",
"Z 	c #FEFEFE",
"` 	c #730606",
" .	c #E2DEFB",
"..	c #E4E0FC",
"+.	c #FFFDFD",
"@.	c #EE9F81",
"#.	c #DD3E02",
"$.	c #DF450C",
"%.	c #F3BBA6",
"&.	c #91C193",
"*.	c #82B984",
"=.	c #D3E6D4",
"-.	c #FAFCFA",
";.	c #F6CDBE",
">.	c #FAE0D7",
",.	c #CFE4CF",
"'.	c #107914",
").	c #ADD1AF",
"!.	c #7B7DC4",
"~.	c #8D8DCD",
"{.	c #F9FBF9",
"].	c #338C36",
"^.	c #8EBF8F",
"/.	c #F4F9F4",
"(.	c #2F8A32",
"_.	c #147B18",
":.	c #D1E5D1",
"<.	c #87BB89",
"[.	c #E2EEE2",
"}.	c #67AA6A",
"|.	c #27862B",
"1.	c #C9B8AF",
"2.	c #720606",
"3.	c #CCCAEF",
"4.	c #D9EADA",
"5.	c #117915",
"6.	c #559F58",
"7.	c #ABD0AD",
"8.	c #3D8739",
"9.	c #141B8B",
"0.	c #12198B",
"a.	c #47974A",
"b.	c #95C397",
"c.	c #197E1D",
"d.	c #107813",
"e.	c #710202",
"f.	c #A0C9A1",
"g.	c #D1C7BE",
"h.	c #1B7F1F",
"i.	c #569552",
"j.	c #650C01",
"k.	c #630E01",
"l.	c #107712",
"m.	c #730808",
"n.	c #6C0300",
"o.	c #6D0300",
"p.	c #750909",
"                            . + + + + + + + + + + @ #           ",
"                            $ % % % % % % % % % % & . *         ",
"                            = - ; > , ' % % % % % & ) ! ~       ",
"                          { ] ^ ^ ^ ^ / ( ( ( ( _ & ) : < [     ",
"                      } ^ ^ ^ ^ ^ ^ ^ | 1 1 1 1 2 & ) % 3 4     ",
"                  ^ ^ ^ ^ ^ ^ ^ ^ ^ ^ 5 % % % % % & ) % % 6 7   ",
"                ^ ^ ^ ^ ^ ^ ^ ^ ^ ^ ^ 5 % % % % % 8 9 9 9 9 0 a ",
"                ^ ^ ^ ^ ^ ^ ^ ^ b c d e % % % % % % % % % % % f ",
"              ^ ^ ^ ^ ^ ^ g h i j 1 1 1 1 1 1 1 1 1 1 1 k % % f ",
"            ^ ^ ^ ^ ^ ^ ^   $ % & ( ( ( ( ( ( ( ( ( ( ( l % % f ",
"            ^ ^ ^ ^ ^ ^     $ % % % % % % % % % % % % % % % % f ",
"m n n n n o ^ ^ ^ ^ ^ p n n n n n n n n q % % % % % % % % % % f ",
"n r s s s t ^ ^ ^ ^ ^ u v s s s s s s w x ( ( ( ( ( ( ( l % % f ",
"n s y z z A ^ ^ ^ ^ ^ ^ B z C D E E E F G 1 1 1 1 1 1 1 k % % f ",
"n s E H I ^ ^ ^ ^ ^ ^ ^ ^ J K E E E E F L % % % % % % % % % % f ",
"n s E E M N ^ ^ ^ ^ ^ ^ O P Q R E E E F L % % % % % % % % % % f ",
"n s E E E S T ^ ^ ^ ^ U V W X Y Z E E F `  . . . . . . ...% % f ",
"n s E E E E +.@.#.$.%.E &.X X X *.E E F G 1 1 1 1 1 1 1 k % % f ",
"n s E E E =.-.E ;.>.E ,.'.X X X X ).E F x !.!.!.!.!.!.!.~.% % f ",
"n s E E {.].^.E E E /.(.X X X X X _.:.F L % % % % % % % % % % f ",
"n s E E <.X _.[.E E }.X X X X X X X |.1.2.3.3.3.3.3.3.3.3.3.3.9 ",
"n s E 4.5.X X 6.E 7.X X X X X X X X X 8.G 9.9.9.9.9.9.9.9.9.9.0.",
"n s Z a.X X X X b.c.X X X X X X X X X d.e.                      ",
"n s f.X X X X X X X X X X X X X X X X d.e.                      ",
"n g.h.X X X X X X X X X X X X X X X X d.e.                      ",
"n i.X X X X X X X X X X X X X X X X X d.e.                      ",
"j.X X X X X X X X X X X X X X X X X X d.e.                      ",
"k.X X X X X X X X X X X X X X X X X X d.e.                      ",
"k.X X X X X X X X X X X X X X X X X X d.e.                      ",
"k.X X X X X X X X X X X X X X X X X X d.e.                      ",
"k.X X X X X X X X X X X X X X X X X X l.e.                      ",
"m.n.n.n.n.n.n.n.n.n.n.n.n.n.n.n.n.n.n.o.p.                      "};
